<svg xmlns="http://www.w3.org/2000/svg" viewBox="0 0 1000 1000" width="1000" height="1000" role="presentation">
<defs>
<radialGradient id="lit" cx="0.2" cy="0.16" r="0.95">
<stop offset="0" stop-color="#fffdf8"/>
<stop offset="0.55" stop-color="#f7f5ef"/>
<stop offset="1" stop-color="#e4dfd1"/>
</radialGradient>
</defs>
<rect width="1000" height="1000" fill="url(#lit)"/>
<g opacity="0.17"><circle cx="25" cy="25" r="3.2" fill="#45423c"/><circle cx="75" cy="25" r="3.2" fill="#45423c"/><circle cx="125" cy="25" r="3.2" fill="#45423c"/><circle cx="175" cy="25" r="3.2" fill="#45423c"/><circle cx="225" cy="25" r="3.2" fill="#45423c"/><circle cx="275" cy="25" r="3.2" fill="#45423c"/><circle cx="325" cy="25" r="3.2" fill="#45423c"/><circle cx="375" cy="25" r="3.2" fill="#45423c"/><circle cx="425" cy="25" r="3.2" fill="#45423c"/><circle cx="475" cy="25" r="3.2" fill="#45423c"/><circle cx="525" cy="25" r="3.2" fill="#45423c"/><circle cx="575" cy="25" r="3.2" fill="#45423c"/><circle cx="625" cy="25" r="3.2" fill="#45423c"/><circle cx="675" cy="25" r="3.2" fill="#45423c"/><circle cx="725" cy="25" r="3.2" fill="#45423c"/><circle cx="775" cy="25" r="3.2" fill="#45423c"/><circle cx="825" cy="25" r="3.2" fill="#45423c"/><circle cx="875" cy="25" r="3.2" fill="#45423c"/><circle cx="925" cy="25" r="3.2" fill="#45423c"/><circle cx="975" cy="25" r="3.2" fill="#45423c"/><circle cx="25" cy="75" r="3.2" fill="#45423c"/><circle cx="75" cy="75" r="3.2" fill="#45423c"/><circle cx="125" cy="75" r="3.2" fill="#45423c"/><circle cx="175" cy="75" r="3.2" fill="#45423c"/><circle cx="225" cy="75" r="3.2" fill="#45423c"/><circle cx="275" cy="75" r="3.2" fill="#45423c"/><circle cx="325" cy="75" r="3.2" fill="#45423c"/><circle cx="375" cy="75" r="3.2" fill="#45423c"/><circle cx="425" cy="75" r="3.2" fill="#45423c"/><circle cx="475" cy="75" r="3.2" fill="#45423c"/><circle cx="525" cy="75" r="3.2" fill="#45423c"/><circle cx="575" cy="75" r="3.2" fill="#45423c"/><circle cx="625" cy="75" r="3.2" fill="#45423c"/><circle cx="675" cy="75" r="3.2" fill="#45423c"/><circle cx="725" cy="75" r="3.2" fill="#45423c"/><circle cx="775" cy="75" r="3.2" fill="#45423c"/><circle cx="825" cy="75" r="3.2" fill="#45423c"/><circle cx="875" cy="75" r="3.2" fill="#45423c"/><circle cx="925" cy="75" r="3.2" fill="#45423c"/><circle cx="975" cy="75" r="3.2" fill="#45423c"/><circle cx="25" cy="125" r="3.2" fill="#45423c"/><circle cx="75" cy="125" r="3.2" fill="#45423c"/><circle cx="125" cy="125" r="3.2" fill="#45423c"/><circle cx="175" cy="125" r="3.2" fill="#45423c"/><circle cx="225" cy="125" r="3.2" fill="#45423c"/><circle cx="275" cy="125" r="3.2" fill="#45423c"/><circle cx="325" cy="125" r="3.2" fill="#45423c"/><circle cx="375" cy="125" r="3.2" fill="#45423c"/><circle cx="425" cy="125" r="3.2" fill="#45423c"/><circle cx="475" cy="125" r="3.2" fill="#45423c"/><circle cx="525" cy="125" r="3.2" fill="#45423c"/><circle cx="575" cy="125" r="3.2" fill="#45423c"/><circle cx="625" cy="125" r="3.2" fill="#45423c"/><circle cx="675" cy="125" r="3.2" fill="#45423c"/><circle cx="725" cy="125" r="3.2" fill="#45423c"/><circle cx="775" cy="125" r="3.2" fill="#45423c"/><circle cx="825" cy="125" r="3.2" fill="#45423c"/><circle cx="875" cy="125" r="3.2" fill="#45423c"/><circle cx="925" cy="125" r="3.2" fill="#45423c"/><circle cx="975" cy="125" r="3.2" fill="#45423c"/><circle cx="25" cy="175" r="3.2" fill="#45423c"/><circle cx="75" cy="175" r="3.2" fill="#45423c"/><circle cx="125" cy="175" r="3.2" fill="#45423c"/><circle cx="175" cy="175" r="3.2" fill="#45423c"/><circle cx="225" cy="175" r="3.2" fill="#45423c"/><circle cx="275" cy="175" r="3.2" fill="#45423c"/><circle cx="325" cy="175" r="3.2" fill="#45423c"/><circle cx="375" cy="175" r="3.2" fill="#45423c"/><circle cx="425" cy="175" r="3.2" fill="#45423c"/><circle cx="475" cy="175" r="3.2" fill="#45423c"/><circle cx="525" cy="175" r="3.2" fill="#45423c"/><circle cx="575" cy="175" r="3.2" fill="#45423c"/><circle cx="625" cy="175" r="3.2" fill="#45423c"/><circle cx="675" cy="175" r="3.2" fill="#45423c"/><circle cx="725" cy="175" r="3.2" fill="#45423c"/><circle cx="775" cy="175" r="3.2" fill="#45423c"/><circle cx="825" cy="175" r="3.2" fill="#45423c"/><circle cx="875" cy="175" r="3.2" fill="#45423c"/><circle cx="925" cy="175" r="3.2" fill="#45423c"/><circle cx="975" cy="175" r="3.2" fill="#45423c"/><circle cx="25" cy="225" r="3.2" fill="#45423c"/><circle cx="75" cy="225" r="3.2" fill="#45423c"/><circle cx="125" cy="225" r="3.2" fill="#45423c"/><circle cx="175" cy="225" r="3.2" fill="#45423c"/><circle cx="225" cy="225" r="3.2" fill="#45423c"/><circle cx="275" cy="225" r="3.2" fill="#45423c"/><circle cx="325" cy="225" r="3.2" fill="#45423c"/><circle cx="375" cy="225" r="3.2" fill="#45423c"/><circle cx="425" cy="225" r="3.2" fill="#45423c"/><circle cx="475" cy="225" r="3.2" fill="#45423c"/><circle cx="525" cy="225" r="3.2" fill="#45423c"/><circle cx="575" cy="225" r="3.2" fill="#45423c"/><circle cx="625" cy="225" r="3.2" fill="#45423c"/><circle cx="675" cy="225" r="3.2" fill="#45423c"/><circle cx="725" cy="225" r="3.2" fill="#45423c"/><circle cx="775" cy="225" r="3.2" fill="#45423c"/><circle cx="825" cy="225" r="3.2" fill="#45423c"/><circle cx="875" cy="225" r="3.2" fill="#45423c"/><circle cx="925" cy="225" r="3.2" fill="#45423c"/><circle cx="975" cy="225" r="3.2" fill="#45423c"/><circle cx="25" cy="275" r="3.2" fill="#45423c"/><circle cx="75" cy="275" r="3.2" fill="#45423c"/><circle cx="125" cy="275" r="3.2" fill="#45423c"/><circle cx="175" cy="275" r="3.2" fill="#45423c"/><circle cx="225" cy="275" r="3.2" fill="#45423c"/><circle cx="275" cy="275" r="3.2" fill="#45423c"/><circle cx="325" cy="275" r="3.2" fill="#45423c"/><circle cx="375" cy="275" r="3.2" fill="#45423c"/><circle cx="425" cy="275" r="3.2" fill="#45423c"/><circle cx="475" cy="275" r="3.2" fill="#45423c"/><circle cx="525" cy="275" r="3.2" fill="#45423c"/><circle cx="575" cy="275" r="3.2" fill="#45423c"/><circle cx="625" cy="275" r="3.2" fill="#45423c"/><circle cx="675" cy="275" r="3.2" fill="#45423c"/><circle cx="725" cy="275" r="3.2" fill="#45423c"/><circle cx="775" cy="275" r="3.2" fill="#45423c"/><circle cx="825" cy="275" r="3.2" fill="#45423c"/><circle cx="875" cy="275" r="3.2" fill="#45423c"/><circle cx="925" cy="275" r="3.2" fill="#45423c"/><circle cx="975" cy="275" r="3.2" fill="#45423c"/><circle cx="25" cy="325" r="3.2" fill="#45423c"/><circle cx="75" cy="325" r="3.2" fill="#45423c"/><circle cx="125" cy="325" r="3.2" fill="#45423c"/><circle cx="175" cy="325" r="3.2" fill="#45423c"/><circle cx="225" cy="325" r="3.2" fill="#45423c"/><circle cx="275" cy="325" r="3.2" fill="#45423c"/><circle cx="325" cy="325" r="3.2" fill="#45423c"/><circle cx="375" cy="325" r="3.2" fill="#45423c"/><circle cx="425" cy="325" r="3.2" fill="#45423c"/><circle cx="475" cy="325" r="3.2" fill="#45423c"/><circle cx="525" cy="325" r="3.2" fill="#45423c"/><circle cx="575" cy="325" r="3.2" fill="#45423c"/><circle cx="625" cy="325" r="3.2" fill="#45423c"/><circle cx="675" cy="325" r="3.2" fill="#45423c"/><circle cx="725" cy="325" r="3.2" fill="#45423c"/><circle cx="775" cy="325" r="3.2" fill="#45423c"/><circle cx="825" cy="325" r="3.2" fill="#45423c"/><circle cx="875" cy="325" r="3.2" fill="#45423c"/><circle cx="925" cy="325" r="3.2" fill="#45423c"/><circle cx="975" cy="325" r="3.2" fill="#45423c"/><circle cx="25" cy="375" r="3.2" fill="#45423c"/><circle cx="75" cy="375" r="3.2" fill="#45423c"/><circle cx="125" cy="375" r="3.2" fill="#45423c"/><circle cx="175" cy="375" r="3.2" fill="#45423c"/><circle cx="225" cy="375" r="3.2" fill="#45423c"/><circle cx="275" cy="375" r="3.2" fill="#45423c"/><circle cx="325" cy="375" r="3.2" fill="#45423c"/><circle cx="375" cy="375" r="3.2" fill="#45423c"/><circle cx="425" cy="375" r="3.2" fill="#45423c"/><circle cx="475" cy="375" r="3.2" fill="#45423c"/><circle cx="525" cy="375" r="3.2" fill="#45423c"/><circle cx="575" cy="375" r="3.2" fill="#45423c"/><circle cx="625" cy="375" r="3.2" fill="#45423c"/><circle cx="675" cy="375" r="3.2" fill="#45423c"/><circle cx="725" cy="375" r="3.2" fill="#45423c"/><circle cx="775" cy="375" r="3.2" fill="#45423c"/><circle cx="825" cy="375" r="3.2" fill="#45423c"/><circle cx="875" cy="375" r="3.2" fill="#45423c"/><circle cx="925" cy="375" r="3.2" fill="#45423c"/><circle cx="975" cy="375" r="3.2" fill="#45423c"/><circle cx="25" cy="425" r="3.2" fill="#45423c"/><circle cx="75" cy="425" r="3.2" fill="#45423c"/><circle cx="125" cy="425" r="3.2" fill="#45423c"/><circle cx="175" cy="425" r="3.2" fill="#45423c"/><circle cx="225" cy="425" r="3.2" fill="#45423c"/><circle cx="275" cy="425" r="3.2" fill="#45423c"/><circle cx="325" cy="425" r="3.2" fill="#45423c"/><circle cx="375" cy="425" r="3.2" fill="#45423c"/><circle cx="425" cy="425" r="3.2" fill="#45423c"/><circle cx="475" cy="425" r="3.2" fill="#45423c"/><circle cx="525" cy="425" r="3.2" fill="#45423c"/><circle cx="575" cy="425" r="3.2" fill="#45423c"/><circle cx="625" cy="425" r="3.2" fill="#45423c"/><circle cx="675" cy="425" r="3.2" fill="#45423c"/><circle cx="725" cy="425" r="3.2" fill="#45423c"/><circle cx="775" cy="425" r="3.2" fill="#45423c"/><circle cx="825" cy="425" r="3.2" fill="#45423c"/><circle cx="875" cy="425" r="3.2" fill="#45423c"/><circle cx="925" cy="425" r="3.2" fill="#45423c"/><circle cx="975" cy="425" r="3.2" fill="#45423c"/><circle cx="25" cy="475" r="3.2" fill="#45423c"/><circle cx="75" cy="475" r="3.2" fill="#45423c"/><circle cx="125" cy="475" r="3.2" fill="#45423c"/><circle cx="175" cy="475" r="3.2" fill="#45423c"/><circle cx="225" cy="475" r="3.2" fill="#45423c"/><circle cx="275" cy="475" r="3.2" fill="#45423c"/><circle cx="325" cy="475" r="3.2" fill="#45423c"/><circle cx="375" cy="475" r="3.2" fill="#45423c"/><circle cx="425" cy="475" r="3.2" fill="#45423c"/><circle cx="475" cy="475" r="3.2" fill="#45423c"/><circle cx="525" cy="475" r="3.2" fill="#45423c"/><circle cx="575" cy="475" r="3.2" fill="#45423c"/><circle cx="625" cy="475" r="3.2" fill="#45423c"/><circle cx="675" cy="475" r="3.2" fill="#45423c"/><circle cx="725" cy="475" r="3.2" fill="#45423c"/><circle cx="775" cy="475" r="3.2" fill="#45423c"/><circle cx="825" cy="475" r="3.2" fill="#45423c"/><circle cx="875" cy="475" r="3.2" fill="#45423c"/><circle cx="925" cy="475" r="3.2" fill="#45423c"/><circle cx="975" cy="475" r="3.2" fill="#45423c"/><circle cx="25" cy="525" r="3.2" fill="#45423c"/><circle cx="75" cy="525" r="3.2" fill="#45423c"/><circle cx="125" cy="525" r="3.2" fill="#45423c"/><circle cx="175" cy="525" r="3.2" fill="#45423c"/><circle cx="225" cy="525" r="3.2" fill="#45423c"/><circle cx="275" cy="525" r="3.2" fill="#45423c"/><circle cx="325" cy="525" r="3.2" fill="#45423c"/><circle cx="375" cy="525" r="3.2" fill="#45423c"/><circle cx="425" cy="525" r="3.2" fill="#45423c"/><circle cx="475" cy="525" r="3.2" fill="#45423c"/><circle cx="525" cy="525" r="3.2" fill="#45423c"/><circle cx="575" cy="525" r="3.2" fill="#45423c"/><circle cx="625" cy="525" r="3.2" fill="#45423c"/><circle cx="675" cy="525" r="3.2" fill="#45423c"/><circle cx="725" cy="525" r="3.2" fill="#45423c"/><circle cx="775" cy="525" r="3.2" fill="#45423c"/><circle cx="825" cy="525" r="3.2" fill="#45423c"/><circle cx="875" cy="525" r="3.2" fill="#45423c"/><circle cx="925" cy="525" r="3.2" fill="#45423c"/><circle cx="975" cy="525" r="3.2" fill="#45423c"/><circle cx="25" cy="575" r="3.2" fill="#45423c"/><circle cx="75" cy="575" r="3.2" fill="#45423c"/><circle cx="125" cy="575" r="3.2" fill="#45423c"/><circle cx="175" cy="575" r="3.2" fill="#45423c"/><circle cx="225" cy="575" r="3.2" fill="#45423c"/><circle cx="275" cy="575" r="3.2" fill="#45423c"/><circle cx="325" cy="575" r="3.2" fill="#45423c"/><circle cx="375" cy="575" r="3.2" fill="#45423c"/><circle cx="425" cy="575" r="3.2" fill="#45423c"/><circle cx="475" cy="575" r="3.2" fill="#45423c"/><circle cx="525" cy="575" r="3.2" fill="#45423c"/><circle cx="575" cy="575" r="3.2" fill="#45423c"/><circle cx="625" cy="575" r="3.2" fill="#45423c"/><circle cx="675" cy="575" r="3.2" fill="#45423c"/><circle cx="725" cy="575" r="3.2" fill="#45423c"/><circle cx="775" cy="575" r="3.2" fill="#45423c"/><circle cx="825" cy="575" r="3.2" fill="#45423c"/><circle cx="875" cy="575" r="3.2" fill="#45423c"/><circle cx="925" cy="575" r="3.2" fill="#45423c"/><circle cx="975" cy="575" r="3.2" fill="#45423c"/><circle cx="25" cy="625" r="3.2" fill="#45423c"/><circle cx="75" cy="625" r="3.2" fill="#45423c"/><circle cx="125" cy="625" r="3.2" fill="#45423c"/><circle cx="175" cy="625" r="3.2" fill="#45423c"/><circle cx="225" cy="625" r="3.2" fill="#45423c"/><circle cx="275" cy="625" r="3.2" fill="#45423c"/><circle cx="325" cy="625" r="3.2" fill="#45423c"/><circle cx="375" cy="625" r="3.2" fill="#45423c"/><circle cx="425" cy="625" r="3.2" fill="#45423c"/><circle cx="475" cy="625" r="3.2" fill="#45423c"/><circle cx="525" cy="625" r="3.2" fill="#45423c"/><circle cx="575" cy="625" r="3.2" fill="#45423c"/><circle cx="625" cy="625" r="3.2" fill="#45423c"/><circle cx="675" cy="625" r="3.2" fill="#45423c"/><circle cx="725" cy="625" r="3.2" fill="#45423c"/><circle cx="775" cy="625" r="3.2" fill="#45423c"/><circle cx="825" cy="625" r="3.2" fill="#45423c"/><circle cx="875" cy="625" r="3.2" fill="#45423c"/><circle cx="925" cy="625" r="3.2" fill="#45423c"/><circle cx="975" cy="625" r="3.2" fill="#45423c"/><circle cx="25" cy="675" r="3.2" fill="#45423c"/><circle cx="75" cy="675" r="3.2" fill="#45423c"/><circle cx="125" cy="675" r="3.2" fill="#45423c"/><circle cx="175" cy="675" r="3.2" fill="#45423c"/><circle cx="225" cy="675" r="3.2" fill="#45423c"/><circle cx="275" cy="675" r="3.2" fill="#45423c"/><circle cx="325" cy="675" r="3.2" fill="#45423c"/><circle cx="375" cy="675" r="3.2" fill="#45423c"/><circle cx="425" cy="675" r="3.2" fill="#45423c"/><circle cx="475" cy="675" r="3.2" fill="#45423c"/><circle cx="525" cy="675" r="3.2" fill="#45423c"/><circle cx="575" cy="675" r="3.2" fill="#45423c"/><circle cx="625" cy="675" r="3.2" fill="#45423c"/><circle cx="675" cy="675" r="3.2" fill="#45423c"/><circle cx="725" cy="675" r="3.2" fill="#45423c"/><circle cx="775" cy="675" r="3.2" fill="#45423c"/><circle cx="825" cy="675" r="3.2" fill="#45423c"/><circle cx="875" cy="675" r="3.2" fill="#45423c"/><circle cx="925" cy="675" r="3.2" fill="#45423c"/><circle cx="975" cy="675" r="3.2" fill="#45423c"/><circle cx="25" cy="725" r="3.2" fill="#45423c"/><circle cx="75" cy="725" r="3.2" fill="#45423c"/><circle cx="125" cy="725" r="3.2" fill="#45423c"/><circle cx="175" cy="725" r="3.2" fill="#45423c"/><circle cx="225" cy="725" r="3.2" fill="#45423c"/><circle cx="275" cy="725" r="3.2" fill="#45423c"/><circle cx="325" cy="725" r="3.2" fill="#45423c"/><circle cx="375" cy="725" r="3.2" fill="#45423c"/><circle cx="425" cy="725" r="3.2" fill="#45423c"/><circle cx="475" cy="725" r="3.2" fill="#45423c"/><circle cx="525" cy="725" r="3.2" fill="#45423c"/><circle cx="575" cy="725" r="3.2" fill="#45423c"/><circle cx="625" cy="725" r="3.2" fill="#45423c"/><circle cx="675" cy="725" r="3.2" fill="#45423c"/><circle cx="725" cy="725" r="3.2" fill="#45423c"/><circle cx="775" cy="725" r="3.2" fill="#45423c"/><circle cx="825" cy="725" r="3.2" fill="#45423c"/><circle cx="875" cy="725" r="3.2" fill="#45423c"/><circle cx="925" cy="725" r="3.2" fill="#45423c"/><circle cx="975" cy="725" r="3.2" fill="#45423c"/><circle cx="25" cy="775" r="3.2" fill="#45423c"/><circle cx="75" cy="775" r="3.2" fill="#45423c"/><circle cx="125" cy="775" r="3.2" fill="#45423c"/><circle cx="175" cy="775" r="3.2" fill="#45423c"/><circle cx="225" cy="775" r="3.2" fill="#45423c"/><circle cx="275" cy="775" r="3.2" fill="#45423c"/><circle cx="325" cy="775" r="3.2" fill="#45423c"/><circle cx="375" cy="775" r="3.2" fill="#45423c"/><circle cx="425" cy="775" r="3.2" fill="#45423c"/><circle cx="475" cy="775" r="3.2" fill="#45423c"/><circle cx="525" cy="775" r="3.2" fill="#45423c"/><circle cx="575" cy="775" r="3.2" fill="#45423c"/><circle cx="625" cy="775" r="3.2" fill="#45423c"/><circle cx="675" cy="775" r="3.2" fill="#45423c"/><circle cx="725" cy="775" r="3.2" fill="#45423c"/><circle cx="775" cy="775" r="3.2" fill="#45423c"/><circle cx="825" cy="775" r="3.2" fill="#45423c"/><circle cx="875" cy="775" r="3.2" fill="#45423c"/><circle cx="925" cy="775" r="3.2" fill="#45423c"/><circle cx="975" cy="775" r="3.2" fill="#45423c"/><circle cx="25" cy="825" r="3.2" fill="#45423c"/><circle cx="75" cy="825" r="3.2" fill="#45423c"/><circle cx="125" cy="825" r="3.2" fill="#45423c"/><circle cx="175" cy="825" r="3.2" fill="#45423c"/><circle cx="225" cy="825" r="3.2" fill="#45423c"/><circle cx="275" cy="825" r="3.2" fill="#45423c"/><circle cx="325" cy="825" r="3.2" fill="#45423c"/><circle cx="375" cy="825" r="3.2" fill="#45423c"/><circle cx="425" cy="825" r="3.2" fill="#45423c"/><circle cx="475" cy="825" r="3.2" fill="#45423c"/><circle cx="525" cy="825" r="3.2" fill="#45423c"/><circle cx="575" cy="825" r="3.2" fill="#45423c"/><circle cx="625" cy="825" r="3.2" fill="#45423c"/><circle cx="675" cy="825" r="3.2" fill="#45423c"/><circle cx="725" cy="825" r="3.2" fill="#45423c"/><circle cx="775" cy="825" r="3.2" fill="#45423c"/><circle cx="825" cy="825" r="3.2" fill="#45423c"/><circle cx="875" cy="825" r="3.2" fill="#45423c"/><circle cx="925" cy="825" r="3.2" fill="#45423c"/><circle cx="975" cy="825" r="3.2" fill="#45423c"/><circle cx="25" cy="875" r="3.2" fill="#45423c"/><circle cx="75" cy="875" r="3.2" fill="#45423c"/><circle cx="125" cy="875" r="3.2" fill="#45423c"/><circle cx="175" cy="875" r="3.2" fill="#45423c"/><circle cx="225" cy="875" r="3.2" fill="#45423c"/><circle cx="275" cy="875" r="3.2" fill="#45423c"/><circle cx="325" cy="875" r="3.2" fill="#45423c"/><circle cx="375" cy="875" r="3.2" fill="#45423c"/><circle cx="425" cy="875" r="3.2" fill="#45423c"/><circle cx="475" cy="875" r="3.2" fill="#45423c"/><circle cx="525" cy="875" r="3.2" fill="#45423c"/><circle cx="575" cy="875" r="3.2" fill="#45423c"/><circle cx="625" cy="875" r="3.2" fill="#45423c"/><circle cx="675" cy="875" r="3.2" fill="#45423c"/><circle cx="725" cy="875" r="3.2" fill="#45423c"/><circle cx="775" cy="875" r="3.2" fill="#45423c"/><circle cx="825" cy="875" r="3.2" fill="#45423c"/><circle cx="875" cy="875" r="3.2" fill="#45423c"/><circle cx="925" cy="875" r="3.2" fill="#45423c"/><circle cx="975" cy="875" r="3.2" fill="#45423c"/><circle cx="25" cy="925" r="3.2" fill="#45423c"/><circle cx="75" cy="925" r="3.2" fill="#45423c"/><circle cx="125" cy="925" r="3.2" fill="#45423c"/><circle cx="175" cy="925" r="3.2" fill="#45423c"/><circle cx="225" cy="925" r="3.2" fill="#45423c"/><circle cx="275" cy="925" r="3.2" fill="#45423c"/><circle cx="325" cy="925" r="3.2" fill="#45423c"/><circle cx="375" cy="925" r="3.2" fill="#45423c"/><circle cx="425" cy="925" r="3.2" fill="#45423c"/><circle cx="475" cy="925" r="3.2" fill="#45423c"/><circle cx="525" cy="925" r="3.2" fill="#45423c"/><circle cx="575" cy="925" r="3.2" fill="#45423c"/><circle cx="625" cy="925" r="3.2" fill="#45423c"/><circle cx="675" cy="925" r="3.2" fill="#45423c"/><circle cx="725" cy="925" r="3.2" fill="#45423c"/><circle cx="775" cy="925" r="3.2" fill="#45423c"/><circle cx="825" cy="925" r="3.2" fill="#45423c"/><circle cx="875" cy="925" r="3.2" fill="#45423c"/><circle cx="925" cy="925" r="3.2" fill="#45423c"/><circle cx="975" cy="925" r="3.2" fill="#45423c"/><circle cx="25" cy="975" r="3.2" fill="#45423c"/><circle cx="75" cy="975" r="3.2" fill="#45423c"/><circle cx="125" cy="975" r="3.2" fill="#45423c"/><circle cx="175" cy="975" r="3.2" fill="#45423c"/><circle cx="225" cy="975" r="3.2" fill="#45423c"/><circle cx="275" cy="975" r="3.2" fill="#45423c"/><circle cx="325" cy="975" r="3.2" fill="#45423c"/><circle cx="375" cy="975" r="3.2" fill="#45423c"/><circle cx="425" cy="975" r="3.2" fill="#45423c"/><circle cx="475" cy="975" r="3.2" fill="#45423c"/><circle cx="525" cy="975" r="3.2" fill="#45423c"/><circle cx="575" cy="975" r="3.2" fill="#45423c"/><circle cx="625" cy="975" r="3.2" fill="#45423c"/><circle cx="675" cy="975" r="3.2" fill="#45423c"/><circle cx="725" cy="975" r="3.2" fill="#45423c"/><circle cx="775" cy="975" r="3.2" fill="#45423c"/><circle cx="825" cy="975" r="3.2" fill="#45423c"/><circle cx="875" cy="975" r="3.2" fill="#45423c"/><circle cx="925" cy="975" r="3.2" fill="#45423c"/><circle cx="975" cy="975" r="3.2" fill="#45423c"/></g>
<g><circle cx="193.66" cy="644.59" r="10" fill="#35322c"/><circle cx="245.99" cy="663.22" r="10" fill="#35322c"/><circle cx="291.6" cy="694.92" r="10" fill="#35322c"/><circle cx="327.31" cy="737.48" r="10" fill="#35322c"/><circle cx="350.61" cy="787.9" r="10" fill="#35322c"/><circle cx="359.87" cy="842.67" r="10" fill="#35322c"/><circle cx="224.85" cy="497.87" r="10" fill="#35322c"/><circle cx="289.84" cy="518.27" r="10" fill="#35322c"/><circle cx="349.82" cy="550.55" r="10" fill="#35322c"/><circle cx="402.65" cy="593.54" r="10" fill="#35322c"/><circle cx="446.43" cy="645.72" r="10" fill="#35322c"/><circle cx="479.6" cy="705.22" r="10" fill="#35322c"/><circle cx="500.97" cy="769.89" r="10" fill="#35322c"/><circle cx="509.78" cy="837.44" r="10" fill="#35322c"/><circle cx="256.03" cy="351.14" r="8" fill="#9a958a"/><circle cx="328.14" cy="372.12" r="8" fill="#9a958a"/><circle cx="396.39" cy="403.47" r="8" fill="#9a958a"/><circle cx="459.29" cy="444.49" r="8" fill="#9a958a"/><circle cx="515.49" cy="494.3" r="8" fill="#9a958a"/><circle cx="563.76" cy="551.83" r="8" fill="#9a958a"/><circle cx="603.06" cy="615.83" r="8" fill="#9a958a"/><circle cx="632.54" cy="684.9" r="8" fill="#9a958a"/><circle cx="651.55" cy="757.55" r="8" fill="#9a958a"/><circle cx="659.69" cy="832.2" r="8" fill="#9a958a"/><circle cx="629.11" cy="396.07" r="8" fill="#9a958a"/><circle cx="680.23" cy="457" r="8" fill="#9a958a"/><circle cx="723.66" cy="523.63" r="8" fill="#9a958a"/><circle cx="758.75" cy="595.01" r="8" fill="#9a958a"/><circle cx="785.01" cy="670.09" r="8" fill="#9a958a"/><circle cx="802.04" cy="747.79" r="8" fill="#9a958a"/><circle cx="809.6" cy="826.97" r="8" fill="#9a958a"/><circle cx="150" cy="850" r="11" fill="#f49f20"/></g>
</svg>
