<svg xmlns="http://www.w3.org/2000/svg" viewBox="0 0 1000 1000" width="1000" height="1000" role="presentation">
<defs>
<radialGradient id="lit" cx="0.2" cy="0.16" r="0.95">
<stop offset="0" stop-color="#fffdf8"/>
<stop offset="0.55" stop-color="#f7f5ef"/>
<stop offset="1" stop-color="#e4dfd1"/>
</radialGradient>
</defs>
<rect width="1000" height="1000" fill="url(#lit)"/>
<g opacity="0.17"><circle cx="25" cy="25" r="3.2" fill="#45423c"/><circle cx="75" cy="25" r="3.2" fill="#45423c"/><circle cx="125" cy="25" r="3.2" fill="#45423c"/><circle cx="175" cy="25" r="3.2" fill="#45423c"/><circle cx="225" cy="25" r="3.2" fill="#45423c"/><circle cx="275" cy="25" r="3.2" fill="#45423c"/><circle cx="325" cy="25" r="3.2" fill="#45423c"/><circle cx="375" cy="25" r="3.2" fill="#45423c"/><circle cx="425" cy="25" r="3.2" fill="#45423c"/><circle cx="475" cy="25" r="3.2" fill="#45423c"/><circle cx="525" cy="25" r="3.2" fill="#45423c"/><circle cx="575" cy="25" r="3.2" fill="#45423c"/><circle cx="625" cy="25" r="3.2" fill="#45423c"/><circle cx="675" cy="25" r="3.2" fill="#45423c"/><circle cx="725" cy="25" r="3.2" fill="#45423c"/><circle cx="775" cy="25" r="3.2" fill="#45423c"/><circle cx="825" cy="25" r="3.2" fill="#45423c"/><circle cx="875" cy="25" r="3.2" fill="#45423c"/><circle cx="925" cy="25" r="3.2" fill="#45423c"/><circle cx="975" cy="25" r="3.2" fill="#45423c"/><circle cx="25" cy="75" r="3.2" fill="#45423c"/><circle cx="75" cy="75" r="3.2" fill="#45423c"/><circle cx="125" cy="75" r="3.2" fill="#45423c"/><circle cx="175" cy="75" r="3.2" fill="#45423c"/><circle cx="225" cy="75" r="3.2" fill="#45423c"/><circle cx="275" cy="75" r="3.2" fill="#45423c"/><circle cx="325" cy="75" r="3.2" fill="#45423c"/><circle cx="375" cy="75" r="3.2" fill="#45423c"/><circle cx="425" cy="75" r="3.2" fill="#45423c"/><circle cx="475" cy="75" r="3.2" fill="#45423c"/><circle cx="525" cy="75" r="3.2" fill="#45423c"/><circle cx="575" cy="75" r="3.2" fill="#45423c"/><circle cx="625" cy="75" r="3.2" fill="#45423c"/><circle cx="675" cy="75" r="3.2" fill="#45423c"/><circle cx="725" cy="75" r="3.2" fill="#45423c"/><circle cx="775" cy="75" r="3.2" fill="#45423c"/><circle cx="825" cy="75" r="3.2" fill="#45423c"/><circle cx="875" cy="75" r="3.2" fill="#45423c"/><circle cx="925" cy="75" r="3.2" fill="#45423c"/><circle cx="975" cy="75" r="3.2" fill="#45423c"/><circle cx="25" cy="125" r="3.2" fill="#45423c"/><circle cx="75" cy="125" r="3.2" fill="#45423c"/><circle cx="125" cy="125" r="3.2" fill="#45423c"/><circle cx="175" cy="125" r="3.2" fill="#45423c"/><circle cx="225" cy="125" r="3.2" fill="#45423c"/><circle cx="275" cy="125" r="3.2" fill="#45423c"/><circle cx="325" cy="125" r="3.2" fill="#45423c"/><circle cx="375" cy="125" r="3.2" fill="#45423c"/><circle cx="425" cy="125" r="3.2" fill="#45423c"/><circle cx="475" cy="125" r="3.2" fill="#45423c"/><circle cx="525" cy="125" r="3.2" fill="#45423c"/><circle cx="575" cy="125" r="3.2" fill="#45423c"/><circle cx="625" cy="125" r="3.2" fill="#45423c"/><circle cx="675" cy="125" r="3.2" fill="#45423c"/><circle cx="725" cy="125" r="3.2" fill="#45423c"/><circle cx="775" cy="125" r="3.2" fill="#45423c"/><circle cx="825" cy="125" r="3.2" fill="#45423c"/><circle cx="875" cy="125" r="3.2" fill="#45423c"/><circle cx="925" cy="125" r="3.2" fill="#45423c"/><circle cx="975" cy="125" r="3.2" fill="#45423c"/><circle cx="25" cy="175" r="3.2" fill="#45423c"/><circle cx="75" cy="175" r="3.2" fill="#45423c"/><circle cx="125" cy="175" r="3.2" fill="#45423c"/><circle cx="175" cy="175" r="3.2" fill="#45423c"/><circle cx="225" cy="175" r="3.2" fill="#45423c"/><circle cx="275" cy="175" r="3.2" fill="#45423c"/><circle cx="325" cy="175" r="3.2" fill="#45423c"/><circle cx="375" cy="175" r="3.2" fill="#45423c"/><circle cx="425" cy="175" r="3.2" fill="#45423c"/><circle cx="475" cy="175" r="3.2" fill="#45423c"/><circle cx="525" cy="175" r="3.2" fill="#45423c"/><circle cx="575" cy="175" r="3.2" fill="#45423c"/><circle cx="625" cy="175" r="3.2" fill="#45423c"/><circle cx="675" cy="175" r="3.2" fill="#45423c"/><circle cx="725" cy="175" r="3.2" fill="#45423c"/><circle cx="775" cy="175" r="3.2" fill="#45423c"/><circle cx="825" cy="175" r="3.2" fill="#45423c"/><circle cx="875" cy="175" r="3.2" fill="#45423c"/><circle cx="925" cy="175" r="3.2" fill="#45423c"/><circle cx="975" cy="175" r="3.2" fill="#45423c"/><circle cx="25" cy="225" r="3.2" fill="#45423c"/><circle cx="75" cy="225" r="3.2" fill="#45423c"/><circle cx="125" cy="225" r="3.2" fill="#45423c"/><circle cx="175" cy="225" r="3.2" fill="#45423c"/><circle cx="225" cy="225" r="3.2" fill="#45423c"/><circle cx="275" cy="225" r="3.2" fill="#45423c"/><circle cx="325" cy="225" r="3.2" fill="#45423c"/><circle cx="375" cy="225" r="3.2" fill="#45423c"/><circle cx="425" cy="225" r="3.2" fill="#45423c"/><circle cx="475" cy="225" r="3.2" fill="#45423c"/><circle cx="525" cy="225" r="3.2" fill="#45423c"/><circle cx="575" cy="225" r="3.2" fill="#45423c"/><circle cx="625" cy="225" r="3.2" fill="#45423c"/><circle cx="675" cy="225" r="3.2" fill="#45423c"/><circle cx="725" cy="225" r="3.2" fill="#45423c"/><circle cx="775" cy="225" r="3.2" fill="#45423c"/><circle cx="825" cy="225" r="3.2" fill="#45423c"/><circle cx="875" cy="225" r="3.2" fill="#45423c"/><circle cx="925" cy="225" r="3.2" fill="#45423c"/><circle cx="975" cy="225" r="3.2" fill="#45423c"/><circle cx="25" cy="275" r="3.2" fill="#45423c"/><circle cx="75" cy="275" r="3.2" fill="#45423c"/><circle cx="125" cy="275" r="3.2" fill="#45423c"/><circle cx="175" cy="275" r="3.2" fill="#45423c"/><circle cx="225" cy="275" r="3.2" fill="#45423c"/><circle cx="275" cy="275" r="3.2" fill="#45423c"/><circle cx="325" cy="275" r="3.2" fill="#45423c"/><circle cx="375" cy="275" r="3.2" fill="#45423c"/><circle cx="425" cy="275" r="3.2" fill="#45423c"/><circle cx="475" cy="275" r="3.2" fill="#45423c"/><circle cx="525" cy="275" r="3.2" fill="#45423c"/><circle cx="575" cy="275" r="3.2" fill="#45423c"/><circle cx="625" cy="275" r="3.2" fill="#45423c"/><circle cx="675" cy="275" r="3.2" fill="#45423c"/><circle cx="725" cy="275" r="3.2" fill="#45423c"/><circle cx="775" cy="275" r="3.2" fill="#45423c"/><circle cx="825" cy="275" r="3.2" fill="#45423c"/><circle cx="875" cy="275" r="3.2" fill="#45423c"/><circle cx="925" cy="275" r="3.2" fill="#45423c"/><circle cx="975" cy="275" r="3.2" fill="#45423c"/><circle cx="25" cy="325" r="3.2" fill="#45423c"/><circle cx="75" cy="325" r="3.2" fill="#45423c"/><circle cx="125" cy="325" r="3.2" fill="#45423c"/><circle cx="175" cy="325" r="3.2" fill="#45423c"/><circle cx="225" cy="325" r="3.2" fill="#45423c"/><circle cx="275" cy="325" r="3.2" fill="#45423c"/><circle cx="325" cy="325" r="3.2" fill="#45423c"/><circle cx="375" cy="325" r="3.2" fill="#45423c"/><circle cx="425" cy="325" r="3.2" fill="#45423c"/><circle cx="475" cy="325" r="3.2" fill="#45423c"/><circle cx="525" cy="325" r="3.2" fill="#45423c"/><circle cx="575" cy="325" r="3.2" fill="#45423c"/><circle cx="625" cy="325" r="3.2" fill="#45423c"/><circle cx="675" cy="325" r="3.2" fill="#45423c"/><circle cx="725" cy="325" r="3.2" fill="#45423c"/><circle cx="775" cy="325" r="3.2" fill="#45423c"/><circle cx="825" cy="325" r="3.2" fill="#45423c"/><circle cx="875" cy="325" r="3.2" fill="#45423c"/><circle cx="925" cy="325" r="3.2" fill="#45423c"/><circle cx="975" cy="325" r="3.2" fill="#45423c"/><circle cx="25" cy="375" r="3.2" fill="#45423c"/><circle cx="75" cy="375" r="3.2" fill="#45423c"/><circle cx="125" cy="375" r="3.2" fill="#45423c"/><circle cx="175" cy="375" r="3.2" fill="#45423c"/><circle cx="225" cy="375" r="3.2" fill="#45423c"/><circle cx="275" cy="375" r="3.2" fill="#45423c"/><circle cx="325" cy="375" r="3.2" fill="#45423c"/><circle cx="375" cy="375" r="3.2" fill="#45423c"/><circle cx="425" cy="375" r="3.2" fill="#45423c"/><circle cx="475" cy="375" r="3.2" fill="#45423c"/><circle cx="525" cy="375" r="3.2" fill="#45423c"/><circle cx="575" cy="375" r="3.2" fill="#45423c"/><circle cx="625" cy="375" r="3.2" fill="#45423c"/><circle cx="675" cy="375" r="3.2" fill="#45423c"/><circle cx="725" cy="375" r="3.2" fill="#45423c"/><circle cx="775" cy="375" r="3.2" fill="#45423c"/><circle cx="825" cy="375" r="3.2" fill="#45423c"/><circle cx="875" cy="375" r="3.2" fill="#45423c"/><circle cx="925" cy="375" r="3.2" fill="#45423c"/><circle cx="975" cy="375" r="3.2" fill="#45423c"/><circle cx="25" cy="425" r="3.2" fill="#45423c"/><circle cx="75" cy="425" r="3.2" fill="#45423c"/><circle cx="125" cy="425" r="3.2" fill="#45423c"/><circle cx="175" cy="425" r="3.2" fill="#45423c"/><circle cx="225" cy="425" r="3.2" fill="#45423c"/><circle cx="275" cy="425" r="3.2" fill="#45423c"/><circle cx="325" cy="425" r="3.2" fill="#45423c"/><circle cx="375" cy="425" r="3.2" fill="#45423c"/><circle cx="425" cy="425" r="3.2" fill="#45423c"/><circle cx="475" cy="425" r="3.2" fill="#45423c"/><circle cx="525" cy="425" r="3.2" fill="#45423c"/><circle cx="575" cy="425" r="3.2" fill="#45423c"/><circle cx="625" cy="425" r="3.2" fill="#45423c"/><circle cx="675" cy="425" r="3.2" fill="#45423c"/><circle cx="725" cy="425" r="3.2" fill="#45423c"/><circle cx="775" cy="425" r="3.2" fill="#45423c"/><circle cx="825" cy="425" r="3.2" fill="#45423c"/><circle cx="875" cy="425" r="3.2" fill="#45423c"/><circle cx="925" cy="425" r="3.2" fill="#45423c"/><circle cx="975" cy="425" r="3.2" fill="#45423c"/><circle cx="25" cy="475" r="3.2" fill="#45423c"/><circle cx="75" cy="475" r="3.2" fill="#45423c"/><circle cx="125" cy="475" r="3.2" fill="#45423c"/><circle cx="175" cy="475" r="3.2" fill="#45423c"/><circle cx="225" cy="475" r="3.2" fill="#45423c"/><circle cx="275" cy="475" r="3.2" fill="#45423c"/><circle cx="325" cy="475" r="3.2" fill="#45423c"/><circle cx="375" cy="475" r="3.2" fill="#45423c"/><circle cx="425" cy="475" r="3.2" fill="#45423c"/><circle cx="475" cy="475" r="3.2" fill="#45423c"/><circle cx="525" cy="475" r="3.2" fill="#45423c"/><circle cx="575" cy="475" r="3.2" fill="#45423c"/><circle cx="625" cy="475" r="3.2" fill="#45423c"/><circle cx="675" cy="475" r="3.2" fill="#45423c"/><circle cx="725" cy="475" r="3.2" fill="#45423c"/><circle cx="775" cy="475" r="3.2" fill="#45423c"/><circle cx="825" cy="475" r="3.2" fill="#45423c"/><circle cx="875" cy="475" r="3.2" fill="#45423c"/><circle cx="925" cy="475" r="3.2" fill="#45423c"/><circle cx="975" cy="475" r="3.2" fill="#45423c"/><circle cx="25" cy="525" r="3.2" fill="#45423c"/><circle cx="75" cy="525" r="3.2" fill="#45423c"/><circle cx="125" cy="525" r="3.2" fill="#45423c"/><circle cx="175" cy="525" r="3.2" fill="#45423c"/><circle cx="225" cy="525" r="3.2" fill="#45423c"/><circle cx="275" cy="525" r="3.2" fill="#45423c"/><circle cx="325" cy="525" r="3.2" fill="#45423c"/><circle cx="375" cy="525" r="3.2" fill="#45423c"/><circle cx="425" cy="525" r="3.2" fill="#45423c"/><circle cx="475" cy="525" r="3.2" fill="#45423c"/><circle cx="525" cy="525" r="3.2" fill="#45423c"/><circle cx="575" cy="525" r="3.2" fill="#45423c"/><circle cx="625" cy="525" r="3.2" fill="#45423c"/><circle cx="675" cy="525" r="3.2" fill="#45423c"/><circle cx="725" cy="525" r="3.2" fill="#45423c"/><circle cx="775" cy="525" r="3.2" fill="#45423c"/><circle cx="825" cy="525" r="3.2" fill="#45423c"/><circle cx="875" cy="525" r="3.2" fill="#45423c"/><circle cx="925" cy="525" r="3.2" fill="#45423c"/><circle cx="975" cy="525" r="3.2" fill="#45423c"/><circle cx="25" cy="575" r="3.2" fill="#45423c"/><circle cx="75" cy="575" r="3.2" fill="#45423c"/><circle cx="125" cy="575" r="3.2" fill="#45423c"/><circle cx="175" cy="575" r="3.2" fill="#45423c"/><circle cx="225" cy="575" r="3.2" fill="#45423c"/><circle cx="275" cy="575" r="3.2" fill="#45423c"/><circle cx="325" cy="575" r="3.2" fill="#45423c"/><circle cx="375" cy="575" r="3.2" fill="#45423c"/><circle cx="425" cy="575" r="3.2" fill="#45423c"/><circle cx="475" cy="575" r="3.2" fill="#45423c"/><circle cx="525" cy="575" r="3.2" fill="#45423c"/><circle cx="575" cy="575" r="3.2" fill="#45423c"/><circle cx="625" cy="575" r="3.2" fill="#45423c"/><circle cx="675" cy="575" r="3.2" fill="#45423c"/><circle cx="725" cy="575" r="3.2" fill="#45423c"/><circle cx="775" cy="575" r="3.2" fill="#45423c"/><circle cx="825" cy="575" r="3.2" fill="#45423c"/><circle cx="875" cy="575" r="3.2" fill="#45423c"/><circle cx="925" cy="575" r="3.2" fill="#45423c"/><circle cx="975" cy="575" r="3.2" fill="#45423c"/><circle cx="25" cy="625" r="3.2" fill="#45423c"/><circle cx="75" cy="625" r="3.2" fill="#45423c"/><circle cx="125" cy="625" r="3.2" fill="#45423c"/><circle cx="175" cy="625" r="3.2" fill="#45423c"/><circle cx="225" cy="625" r="3.2" fill="#45423c"/><circle cx="275" cy="625" r="3.2" fill="#45423c"/><circle cx="325" cy="625" r="3.2" fill="#45423c"/><circle cx="375" cy="625" r="3.2" fill="#45423c"/><circle cx="425" cy="625" r="3.2" fill="#45423c"/><circle cx="475" cy="625" r="3.2" fill="#45423c"/><circle cx="525" cy="625" r="3.2" fill="#45423c"/><circle cx="575" cy="625" r="3.2" fill="#45423c"/><circle cx="625" cy="625" r="3.2" fill="#45423c"/><circle cx="675" cy="625" r="3.2" fill="#45423c"/><circle cx="725" cy="625" r="3.2" fill="#45423c"/><circle cx="775" cy="625" r="3.2" fill="#45423c"/><circle cx="825" cy="625" r="3.2" fill="#45423c"/><circle cx="875" cy="625" r="3.2" fill="#45423c"/><circle cx="925" cy="625" r="3.2" fill="#45423c"/><circle cx="975" cy="625" r="3.2" fill="#45423c"/><circle cx="25" cy="675" r="3.2" fill="#45423c"/><circle cx="75" cy="675" r="3.2" fill="#45423c"/><circle cx="125" cy="675" r="3.2" fill="#45423c"/><circle cx="175" cy="675" r="3.2" fill="#45423c"/><circle cx="225" cy="675" r="3.2" fill="#45423c"/><circle cx="275" cy="675" r="3.2" fill="#45423c"/><circle cx="325" cy="675" r="3.2" fill="#45423c"/><circle cx="375" cy="675" r="3.2" fill="#45423c"/><circle cx="425" cy="675" r="3.2" fill="#45423c"/><circle cx="475" cy="675" r="3.2" fill="#45423c"/><circle cx="525" cy="675" r="3.2" fill="#45423c"/><circle cx="575" cy="675" r="3.2" fill="#45423c"/><circle cx="625" cy="675" r="3.2" fill="#45423c"/><circle cx="675" cy="675" r="3.2" fill="#45423c"/><circle cx="725" cy="675" r="3.2" fill="#45423c"/><circle cx="775" cy="675" r="3.2" fill="#45423c"/><circle cx="825" cy="675" r="3.2" fill="#45423c"/><circle cx="875" cy="675" r="3.2" fill="#45423c"/><circle cx="925" cy="675" r="3.2" fill="#45423c"/><circle cx="975" cy="675" r="3.2" fill="#45423c"/><circle cx="25" cy="725" r="3.2" fill="#45423c"/><circle cx="75" cy="725" r="3.2" fill="#45423c"/><circle cx="125" cy="725" r="3.2" fill="#45423c"/><circle cx="175" cy="725" r="3.2" fill="#45423c"/><circle cx="225" cy="725" r="3.2" fill="#45423c"/><circle cx="275" cy="725" r="3.2" fill="#45423c"/><circle cx="325" cy="725" r="3.2" fill="#45423c"/><circle cx="375" cy="725" r="3.2" fill="#45423c"/><circle cx="425" cy="725" r="3.2" fill="#45423c"/><circle cx="475" cy="725" r="3.2" fill="#45423c"/><circle cx="525" cy="725" r="3.2" fill="#45423c"/><circle cx="575" cy="725" r="3.2" fill="#45423c"/><circle cx="625" cy="725" r="3.2" fill="#45423c"/><circle cx="675" cy="725" r="3.2" fill="#45423c"/><circle cx="725" cy="725" r="3.2" fill="#45423c"/><circle cx="775" cy="725" r="3.2" fill="#45423c"/><circle cx="825" cy="725" r="3.2" fill="#45423c"/><circle cx="875" cy="725" r="3.2" fill="#45423c"/><circle cx="925" cy="725" r="3.2" fill="#45423c"/><circle cx="975" cy="725" r="3.2" fill="#45423c"/><circle cx="25" cy="775" r="3.2" fill="#45423c"/><circle cx="75" cy="775" r="3.2" fill="#45423c"/><circle cx="125" cy="775" r="3.2" fill="#45423c"/><circle cx="175" cy="775" r="3.2" fill="#45423c"/><circle cx="225" cy="775" r="3.2" fill="#45423c"/><circle cx="275" cy="775" r="3.2" fill="#45423c"/><circle cx="325" cy="775" r="3.2" fill="#45423c"/><circle cx="375" cy="775" r="3.2" fill="#45423c"/><circle cx="425" cy="775" r="3.2" fill="#45423c"/><circle cx="475" cy="775" r="3.2" fill="#45423c"/><circle cx="525" cy="775" r="3.2" fill="#45423c"/><circle cx="575" cy="775" r="3.2" fill="#45423c"/><circle cx="625" cy="775" r="3.2" fill="#45423c"/><circle cx="675" cy="775" r="3.2" fill="#45423c"/><circle cx="725" cy="775" r="3.2" fill="#45423c"/><circle cx="775" cy="775" r="3.2" fill="#45423c"/><circle cx="825" cy="775" r="3.2" fill="#45423c"/><circle cx="875" cy="775" r="3.2" fill="#45423c"/><circle cx="925" cy="775" r="3.2" fill="#45423c"/><circle cx="975" cy="775" r="3.2" fill="#45423c"/><circle cx="25" cy="825" r="3.2" fill="#45423c"/><circle cx="75" cy="825" r="3.2" fill="#45423c"/><circle cx="125" cy="825" r="3.2" fill="#45423c"/><circle cx="175" cy="825" r="3.2" fill="#45423c"/><circle cx="225" cy="825" r="3.2" fill="#45423c"/><circle cx="275" cy="825" r="3.2" fill="#45423c"/><circle cx="325" cy="825" r="3.2" fill="#45423c"/><circle cx="375" cy="825" r="3.2" fill="#45423c"/><circle cx="425" cy="825" r="3.2" fill="#45423c"/><circle cx="475" cy="825" r="3.2" fill="#45423c"/><circle cx="525" cy="825" r="3.2" fill="#45423c"/><circle cx="575" cy="825" r="3.2" fill="#45423c"/><circle cx="625" cy="825" r="3.2" fill="#45423c"/><circle cx="675" cy="825" r="3.2" fill="#45423c"/><circle cx="725" cy="825" r="3.2" fill="#45423c"/><circle cx="775" cy="825" r="3.2" fill="#45423c"/><circle cx="825" cy="825" r="3.2" fill="#45423c"/><circle cx="875" cy="825" r="3.2" fill="#45423c"/><circle cx="925" cy="825" r="3.2" fill="#45423c"/><circle cx="975" cy="825" r="3.2" fill="#45423c"/><circle cx="25" cy="875" r="3.2" fill="#45423c"/><circle cx="75" cy="875" r="3.2" fill="#45423c"/><circle cx="125" cy="875" r="3.2" fill="#45423c"/><circle cx="175" cy="875" r="3.2" fill="#45423c"/><circle cx="225" cy="875" r="3.2" fill="#45423c"/><circle cx="275" cy="875" r="3.2" fill="#45423c"/><circle cx="325" cy="875" r="3.2" fill="#45423c"/><circle cx="375" cy="875" r="3.2" fill="#45423c"/><circle cx="425" cy="875" r="3.2" fill="#45423c"/><circle cx="475" cy="875" r="3.2" fill="#45423c"/><circle cx="525" cy="875" r="3.2" fill="#45423c"/><circle cx="575" cy="875" r="3.2" fill="#45423c"/><circle cx="625" cy="875" r="3.2" fill="#45423c"/><circle cx="675" cy="875" r="3.2" fill="#45423c"/><circle cx="725" cy="875" r="3.2" fill="#45423c"/><circle cx="775" cy="875" r="3.2" fill="#45423c"/><circle cx="825" cy="875" r="3.2" fill="#45423c"/><circle cx="875" cy="875" r="3.2" fill="#45423c"/><circle cx="925" cy="875" r="3.2" fill="#45423c"/><circle cx="975" cy="875" r="3.2" fill="#45423c"/><circle cx="25" cy="925" r="3.2" fill="#45423c"/><circle cx="75" cy="925" r="3.2" fill="#45423c"/><circle cx="125" cy="925" r="3.2" fill="#45423c"/><circle cx="175" cy="925" r="3.2" fill="#45423c"/><circle cx="225" cy="925" r="3.2" fill="#45423c"/><circle cx="275" cy="925" r="3.2" fill="#45423c"/><circle cx="325" cy="925" r="3.2" fill="#45423c"/><circle cx="375" cy="925" r="3.2" fill="#45423c"/><circle cx="425" cy="925" r="3.2" fill="#45423c"/><circle cx="475" cy="925" r="3.2" fill="#45423c"/><circle cx="525" cy="925" r="3.2" fill="#45423c"/><circle cx="575" cy="925" r="3.2" fill="#45423c"/><circle cx="625" cy="925" r="3.2" fill="#45423c"/><circle cx="675" cy="925" r="3.2" fill="#45423c"/><circle cx="725" cy="925" r="3.2" fill="#45423c"/><circle cx="775" cy="925" r="3.2" fill="#45423c"/><circle cx="825" cy="925" r="3.2" fill="#45423c"/><circle cx="875" cy="925" r="3.2" fill="#45423c"/><circle cx="925" cy="925" r="3.2" fill="#45423c"/><circle cx="975" cy="925" r="3.2" fill="#45423c"/><circle cx="25" cy="975" r="3.2" fill="#45423c"/><circle cx="75" cy="975" r="3.2" fill="#45423c"/><circle cx="125" cy="975" r="3.2" fill="#45423c"/><circle cx="175" cy="975" r="3.2" fill="#45423c"/><circle cx="225" cy="975" r="3.2" fill="#45423c"/><circle cx="275" cy="975" r="3.2" fill="#45423c"/><circle cx="325" cy="975" r="3.2" fill="#45423c"/><circle cx="375" cy="975" r="3.2" fill="#45423c"/><circle cx="425" cy="975" r="3.2" fill="#45423c"/><circle cx="475" cy="975" r="3.2" fill="#45423c"/><circle cx="525" cy="975" r="3.2" fill="#45423c"/><circle cx="575" cy="975" r="3.2" fill="#45423c"/><circle cx="625" cy="975" r="3.2" fill="#45423c"/><circle cx="675" cy="975" r="3.2" fill="#45423c"/><circle cx="725" cy="975" r="3.2" fill="#45423c"/><circle cx="775" cy="975" r="3.2" fill="#45423c"/><circle cx="825" cy="975" r="3.2" fill="#45423c"/><circle cx="875" cy="975" r="3.2" fill="#45423c"/><circle cx="925" cy="975" r="3.2" fill="#45423c"/><circle cx="975" cy="975" r="3.2" fill="#45423c"/></g>
<g><circle cx="25" cy="825" r="8" fill="#9a958a"/><circle cx="75" cy="804" r="8" fill="#9a958a"/><circle cx="125" cy="783" r="8" fill="#9a958a"/><circle cx="175" cy="762" r="8" fill="#9a958a"/><circle cx="225" cy="741" r="8" fill="#9a958a"/><circle cx="275" cy="720" r="8" fill="#9a958a"/><circle cx="325" cy="699" r="8" fill="#9a958a"/><circle cx="375" cy="678" r="8" fill="#9a958a"/><circle cx="425" cy="657" r="8" fill="#9a958a"/><circle cx="475" cy="636" r="8" fill="#9a958a"/><circle cx="525" cy="615" r="8" fill="#9a958a"/><circle cx="575" cy="594" r="8" fill="#9a958a"/><circle cx="625" cy="573" r="8" fill="#9a958a"/><circle cx="675" cy="552" r="8" fill="#9a958a"/><circle cx="725" cy="531" r="8" fill="#9a958a"/><circle cx="775" cy="510" r="8" fill="#9a958a"/><circle cx="825" cy="489" r="8" fill="#9a958a"/><circle cx="875" cy="468" r="8" fill="#9a958a"/><circle cx="925" cy="447" r="8" fill="#9a958a"/><circle cx="975" cy="426" r="8" fill="#9a958a"/><circle cx="275" cy="350" r="8" fill="#9a958a"/><circle cx="300" cy="400" r="8" fill="#9a958a"/><circle cx="325" cy="450" r="8" fill="#9a958a"/><circle cx="350" cy="500" r="8" fill="#9a958a"/><circle cx="375" cy="550" r="8" fill="#9a958a"/><circle cx="400" cy="600" r="8" fill="#9a958a"/><circle cx="425" cy="650" r="8" fill="#9a958a"/><circle cx="450" cy="700" r="8" fill="#9a958a"/><circle cx="475" cy="750" r="8" fill="#9a958a"/><circle cx="500" cy="800" r="8" fill="#9a958a"/><circle cx="525" cy="850" r="8" fill="#9a958a"/><circle cx="550" cy="900" r="8" fill="#9a958a"/><circle cx="575" cy="950" r="8" fill="#9a958a"/><circle cx="625" cy="600" r="75" fill="none" stroke="#f49f20" stroke-width="5"/><circle cx="625" cy="600" r="11" fill="#f49f20"/></g>
</svg>
