<svg xmlns="http://www.w3.org/2000/svg" viewBox="0 0 1600 900" font-family="-apple-system, 'Apple SD Gothic Neo', sans-serif" role="img"><defs><radialGradient id="vig" cx="0.5" cy="0.42" r="0.75"><stop offset="0" stop-color="#131a1e"/><stop offset="1" stop-color="#0a0d0f"/></radialGradient><linearGradient id="glass" x1="0" y1="0" x2="0" y2="1"><stop offset="0" stop-color="#1c2125" stop-opacity="0.92"/><stop offset="1" stop-color="#101416" stop-opacity="0.96"/></linearGradient><linearGradient id="edge" x1="0" y1="0" x2="0" y2="1"><stop offset="0" stop-color="#ffffff" stop-opacity="0.28"/><stop offset="0.25" stop-color="#ffffff" stop-opacity="0.06"/><stop offset="1" stop-color="#8a97a8" stop-opacity="0.45"/></linearGradient><filter id="glow" x="-60%" y="-60%" width="220%" height="220%"><feGaussianBlur stdDeviation="7"/></filter><filter id="soft" x="-40%" y="-40%" width="180%" height="180%"><feGaussianBlur stdDeviation="1.6"/></filter></defs><rect width="1600" height="900" fill="url(#vig)"/><text x="80" y="96" fill="#f5f5f7" font-size="30" font-weight="700">흩어진 시스템이 한 화면으로 모인다</text><text x="80" y="128" fill="#86868b" font-size="15">ENVIEW PORTAL — 수행 범위 데이터 파생</text><g><rect x="80" y="442" width="330" height="16" rx="8" fill="#8a97a8" opacity="0.35" filter="url(#glow)"/><rect x="80" y="280" width="330" height="172" rx="18" fill="url(#glass)" stroke="url(#edge)" stroke-width="1.6"/><path d="M98 281.5 H392" stroke="#ffffff" stroke-opacity="0.35" stroke-width="1.2" filter="url(#soft)"/><rect x="109.5" y="309.5" width="3.8" height="3.8" rx="1.2" fill="#8a97a8"/><rect x="115.1" y="309.5" width="3.8" height="3.8" rx="1.2" fill="#8a97a8"/><rect x="120.8" y="309.5" width="3.8" height="3.8" rx="1.2" fill="#8a97a8"/><rect x="103.9" y="315.1" width="3.8" height="3.8" rx="1.2" fill="#8a97a8"/><rect x="109.5" y="315.1" width="3.8" height="3.8" rx="1.2" fill="#8a97a8"/><rect x="115.1" y="315.1" width="3.8" height="3.8" rx="1.2" fill="#8a97a8"/><rect x="120.8" y="315.1" width="3.8" height="3.8" rx="1.2" fill="#8a97a8"/><rect x="126.4" y="315.1" width="3.8" height="3.8" rx="1.2" fill="#8a97a8"/><text x="146" y="323" fill="#f5f5f7" font-size="19" font-weight="700">부서별 시스템</text><text x="106" y="356" fill="#8a97a8" font-size="12.5" font-weight="700" letter-spacing="1.5">TODAY</text><text x="106" y="388" fill="#a9adb3" font-size="15.5">그룹웨어 · ERP</text><text x="106" y="415" fill="#a9adb3" font-size="15.5">업무 시스템들</text></g><g><rect x="80" y="645" width="330" height="16" rx="8" fill="#8a97a8" opacity="0.35" filter="url(#glow)"/><rect x="80" y="510" width="330" height="145" rx="18" fill="url(#glass)" stroke="url(#edge)" stroke-width="1.6"/><path d="M98 511.5 H392" stroke="#ffffff" stroke-opacity="0.35" stroke-width="1.2" filter="url(#soft)"/><rect x="103.9" y="533.9" width="3.8" height="3.8" rx="1.2" fill="#8a97a8"/><rect x="126.4" y="533.9" width="3.8" height="3.8" rx="1.2" fill="#8a97a8"/><rect x="115.1" y="539.5" width="3.8" height="3.8" rx="1.2" fill="#8a97a8"/><rect x="109.5" y="545.1" width="3.8" height="3.8" rx="1.2" fill="#8a97a8"/><rect x="115.1" y="545.1" width="3.8" height="3.8" rx="1.2" fill="#8a97a8"/><rect x="120.8" y="545.1" width="3.8" height="3.8" rx="1.2" fill="#8a97a8"/><rect x="115.1" y="550.8" width="3.8" height="3.8" rx="1.2" fill="#8a97a8"/><rect x="103.9" y="556.4" width="3.8" height="3.8" rx="1.2" fill="#8a97a8"/><rect x="126.4" y="556.4" width="3.8" height="3.8" rx="1.2" fill="#8a97a8"/><text x="146" y="553" fill="#f5f5f7" font-size="19" font-weight="700">사용자</text><text x="106" y="586" fill="#8a97a8" font-size="12.5" font-weight="700" letter-spacing="1.5">PEOPLE</text><text x="106" y="618" fill="#a9adb3" font-size="15.5">주소를 외워 쓰는 직원들</text></g><g><rect x="560" y="539" width="480" height="16" rx="8" fill="#8a97a8" opacity="0.35" filter="url(#glow)"/><rect x="560" y="350" width="480" height="199" rx="18" fill="url(#glass)" stroke="url(#edge)" stroke-width="1.6"/><path d="M578 351.5 H1022" stroke="#ffffff" stroke-opacity="0.35" stroke-width="1.2" filter="url(#soft)"/><rect x="583.9" y="373.9" width="3.8" height="3.8" rx="1.2" fill="#8a97a8"/><rect x="589.5" y="373.9" width="3.8" height="3.8" rx="1.2" fill="#8a97a8"/><rect x="600.8" y="373.9" width="3.8" height="3.8" rx="1.2" fill="#8a97a8"/><rect x="606.4" y="373.9" width="3.8" height="3.8" rx="1.2" fill="#8a97a8"/><rect x="583.9" y="379.5" width="3.8" height="3.8" rx="1.2" fill="#8a97a8"/><rect x="606.4" y="379.5" width="3.8" height="3.8" rx="1.2" fill="#8a97a8"/><rect x="595.1" y="385.1" width="3.8" height="3.8" rx="1.2" fill="#8a97a8"/><rect x="583.9" y="390.8" width="3.8" height="3.8" rx="1.2" fill="#8a97a8"/><rect x="606.4" y="390.8" width="3.8" height="3.8" rx="1.2" fill="#8a97a8"/><rect x="583.9" y="396.4" width="3.8" height="3.8" rx="1.2" fill="#8a97a8"/><rect x="589.5" y="396.4" width="3.8" height="3.8" rx="1.2" fill="#8a97a8"/><rect x="600.8" y="396.4" width="3.8" height="3.8" rx="1.2" fill="#8a97a8"/><rect x="606.4" y="396.4" width="3.8" height="3.8" rx="1.2" fill="#8a97a8"/><text x="626" y="393" fill="#f5f5f7" font-size="19" font-weight="700">EnView 포털</text><text x="586" y="426" fill="#8a97a8" font-size="12.5" font-weight="700" letter-spacing="1.5">ONE SCREEN</text><text x="586" y="458" fill="#a9adb3" font-size="15.5">메뉴 구조 · 권한 체계</text><text x="586" y="485" fill="#a9adb3" font-size="15.5">사용자 화면 구축</text><text x="586" y="512" fill="#a9adb3" font-size="15.5">기존 시스템 연계</text></g><g><rect x="1190" y="532" width="330" height="16" rx="8" fill="#8a97a8" opacity="0.35" filter="url(#glow)"/><rect x="1190" y="370" width="330" height="172" rx="18" fill="url(#glass)" stroke="url(#edge)" stroke-width="1.6"/><path d="M1208 371.5 H1502" stroke="#ffffff" stroke-opacity="0.35" stroke-width="1.2" filter="url(#soft)"/><rect x="1225.1" y="393.9" width="3.8" height="3.8" rx="1.2" fill="#8a97a8"/><rect x="1219.5" y="399.5" width="3.8" height="3.8" rx="1.2" fill="#8a97a8"/><rect x="1225.1" y="399.5" width="3.8" height="3.8" rx="1.2" fill="#8a97a8"/><rect x="1230.8" y="399.5" width="3.8" height="3.8" rx="1.2" fill="#8a97a8"/><rect x="1213.9" y="405.1" width="3.8" height="3.8" rx="1.2" fill="#8a97a8"/><rect x="1236.4" y="405.1" width="3.8" height="3.8" rx="1.2" fill="#8a97a8"/><rect x="1225.1" y="410.8" width="3.8" height="3.8" rx="1.2" fill="#8a97a8"/><rect x="1219.5" y="416.4" width="3.8" height="3.8" rx="1.2" fill="#8a97a8"/><rect x="1225.1" y="416.4" width="3.8" height="3.8" rx="1.2" fill="#8a97a8"/><rect x="1230.8" y="416.4" width="3.8" height="3.8" rx="1.2" fill="#8a97a8"/><text x="1256" y="413" fill="#f5f5f7" font-size="19" font-weight="700">연간 운영 · 개선</text><text x="1216" y="446" fill="#8a97a8" font-size="12.5" font-weight="700" letter-spacing="1.5">AFTER OPEN</text><text x="1216" y="478" fill="#a9adb3" font-size="15.5">운영 · 유지보수</text><text x="1216" y="505" fill="#a9adb3" font-size="15.5">개선 과제 수행</text></g><g fill="none"><path d="M410 366.0 C483.0 396.0 483.0 444.5 556 414.5" stroke="#8a97a8" stroke-width="7" opacity="0.28" filter="url(#glow)"/><path d="M410 366.0 C483.0 396.0 483.0 444.5 556 414.5" stroke="#8a97a8" stroke-width="2.2" opacity="0.95"/><circle cx="556" cy="414.5" r="4.5" fill="#8a97a8"/><circle cx="410" cy="366.0" r="3" fill="#8a97a8" opacity="0.7"/></g><g fill="none"><path d="M410 582.5 C483.0 552.5 483.0 454.5 556 484.5" stroke="#8a97a8" stroke-width="7" opacity="0.28" filter="url(#glow)"/><path d="M410 582.5 C483.0 552.5 483.0 454.5 556 484.5" stroke="#8a97a8" stroke-width="2.2" opacity="0.95"/><circle cx="556" cy="484.5" r="4.5" fill="#8a97a8"/><circle cx="410" cy="582.5" r="3" fill="#8a97a8" opacity="0.7"/></g><g fill="none"><path d="M1040 449.5 C1113.0 449.5 1113.0 456.0 1186 456.0" stroke="#8a97a8" stroke-width="7" opacity="0.28" filter="url(#glow)"/><path d="M1040 449.5 C1113.0 449.5 1113.0 456.0 1186 456.0" stroke="#8a97a8" stroke-width="2.2" opacity="0.95"/><circle cx="1186" cy="456.0" r="4.5" fill="#8a97a8"/><circle cx="1040" cy="449.5" r="3" fill="#8a97a8" opacity="0.7"/></g></svg>